<?xml version="1.0" encoding="utf-8"?><svg version="1.1" id="Layer_1" xmlns="http://www.w3.org/2000/svg" xmlns:xlink="http://www.w3.org/1999/xlink" x="0px" y="0px" viewBox="0 0 122.88 105.35" style="enable-background:new 0 0 122.88 105.35" xml:space="preserve"><style type="text/css">.st0{fill-rule:evenodd;clip-rule:evenodd;}</style><g><path class="st0" d="M80.45,7.32l2.02,5.74L85.58,3l1.13,7.33l6.72-10.1l-0.54,11.63l4.18-4.56l-1.67,5.42l9.67-7.36l-7.69,10.69 l4.4-0.94l-3.08,3.48l9.91-1.22l-12.4,8.54l4.75,1.53l-9.77-0.76l4.2-3.9l-5.25,0.66l1.97-3.62l-1.93,1.38l0.42-2.81l-1.81,1.97 l-0.17-5.05l-3.54,4.83l-0.85-3.46l-2.03,3.27L80.45,7.32L80.45,7.32z M38.77,66.75H11.34v6.73l-10.18,0 c0-15.75-4.76-37.26,5.05-50.27l4.78-14.86C12.39,3.98,14.75,0,19.34,0h45.82c4.6,0,7.25,3.9,8.36,8.36l3.69,14.86l1.48,3.67H61.94 c-3.88,0-6.8,1.66-9.02,4.22c-1.83,2.1-3.05,4.77-3.93,7.51l-4.54,14.13c-0.13,0.19-0.26,0.38-0.39,0.56H26.12v0v7.09l14.36,0 C39.74,62.45,39.19,64.57,38.77,66.75L38.77,66.75z M121.58,105.35h-10.21V98.6H53.92v6.75l-10.21,0c0-15.78-4.77-37.34,5.07-50.38 l4.79-14.89c1.41-4.38,3.77-8.37,8.37-8.37h43.19c4.61,0,7.26,3.91,8.37,8.37l3.7,14.89C126.49,69.22,121.58,86.6,121.58,105.35 L121.58,105.35z M68.73,85.13h27.42v7.11l-27.42,0V85.13L68.73,85.13L68.73,85.13L68.73,85.13z M47.13,68.58 c7.68,0.24,12.38,3.46,13.59,10.17H47.13V68.58L47.13,68.58z M117.2,68.58c-7.68,0.24-12.38,3.46-13.59,10.17h13.59V68.58 L117.2,68.58z M52.45,54.97h60.4l-2.71-12.49c-0.74-3.42-2.87-6.38-6.38-6.38H62.83c-3.51,0-5.31,3.04-6.38,6.38L52.45,54.97 L52.45,54.97L52.45,54.97L52.45,54.97z M4.57,36.79c7.67,0.24,12.35,3.45,13.56,10.14H4.57V36.79L4.57,36.79z M9.87,23.22h63 l-2.7-12.46c-0.74-3.42-2.87-6.37-6.37-6.37H20.23c-3.5,0-5.3,3.03-6.37,6.37L9.87,23.22L9.87,23.22L9.87,23.22L9.87,23.22z"/></g></svg>